# xmcd
#
# Track frame offsets:
#	150
#	40844
#	74999
#	110066
#	142715
#	181415
#	203693
#	230747
#	299688
#
# Disc length: 4487 seconds
#
# Revision: 0
# Processed by: cddbd v1.5.2PL0 Copyright (c) Steve Scherf et al.
# Submitted via: SynApp - FreeCDDB Version: 2.5
#
DISCID=90118509
DTITLE=Gallagher, Rory - Pistol Slapper Blues
DYEAR=2000
DGENRE=Blues
TTITLE0=a
TTITLE1=a
TTITLE2=a
TTITLE3=a
TTITLE4=a
TTITLE5=a
TTITLE6=a
TTITLE7=a
TTITLE8=a
EXTD=
EXTT0=
EXTT1=
EXTT2=
EXTT3=
EXTT4=
EXTT5=
EXTT6=
EXTT7=
EXTT8=
PLAYORDER=
